<svg width="40" height="40" viewBox="0 0 40 40" fill="none" xmlns="http://www.w3.org/2000/svg">
<path d="M30.8333 38.6667H9.16665C7.33331 38.6667 5.83331 37.1667 5.83331 35.3333V20.3333C5.83331 18.5 7.33331 17 9.16665 17H30.8333C32.6666 17 34.1666 18.5 34.1666 20.3333V35.3333C34.1666 37.3333 32.6666 38.6667 30.8333 38.6667Z" stroke="#666666" stroke-width="1.5" stroke-miterlimit="10" stroke-linecap="round" stroke-linejoin="round"/>
<path d="M20 28.8333C21.3807 28.8333 22.5 27.714 22.5 26.3333C22.5 24.9526 21.3807 23.8333 20 23.8333C18.6193 23.8333 17.5 24.9526 17.5 26.3333C17.5 27.714 18.6193 28.8333 20 28.8333Z" stroke="#666666" stroke-width="1.5" stroke-miterlimit="10" stroke-linecap="round" stroke-linejoin="round"/>
<path d="M20 28.8333V32.6667" stroke="#666666" stroke-width="1.5" stroke-miterlimit="10" stroke-linecap="round" stroke-linejoin="round"/>
<path d="M11.1666 17.1667V10C11.1666 5.16666 15.1666 1.16666 20 1.16666C24.8333 1.16666 28.8333 5.16666 28.8333 10V17.1667" stroke="#666666" stroke-width="1.5" stroke-miterlimit="10" stroke-linecap="round" stroke-linejoin="round"/>
</svg>
