<svg width="36" height="36" viewBox="0 0 36 36" fill="none" xmlns="http://www.w3.org/2000/svg">
<path id="Vector" d="M1.92857 35.5C1.38214 35.5 0.924107 35.3203 0.554464 34.9609C0.184821 34.6016 0 34.1562 0 33.625V25.3125C0 24.7812 0.185893 24.3359 0.557679 23.9766C0.929507 23.6172 1.39022 23.4375 1.93982 23.4375C2.48946 23.4375 2.94643 23.6172 3.31071 23.9766C3.675 24.3359 3.85714 24.7812 3.85714 25.3125V31.75H10.4786C11.025 31.75 11.483 31.9307 11.8527 32.2922C12.2223 32.6537 12.4071 33.1016 12.4071 33.6359C12.4071 34.1703 12.2223 34.6146 11.8527 34.9688C11.483 35.3229 11.025 35.5 10.4786 35.5H1.92857ZM1.91732 12.5625C1.36768 12.5625 0.910714 12.3828 0.546429 12.0234C0.182143 11.6641 0 11.2188 0 10.6875V2.375C0 1.84375 0.184821 1.39844 0.554464 1.03906C0.924107 0.679687 1.38214 0.5 1.92857 0.5H10.4786C11.025 0.5 11.483 0.680728 11.8527 1.04219C12.2223 1.40369 12.4071 1.8516 12.4071 2.38594C12.4071 2.92031 12.2223 3.36458 11.8527 3.71875C11.483 4.07292 11.025 4.25 10.4786 4.25H3.85714V10.6875C3.85714 11.2188 3.67125 11.6641 3.29946 12.0234C2.92764 12.3828 2.46692 12.5625 1.91732 12.5625ZM25.5214 35.5C24.975 35.5 24.517 35.3193 24.1473 34.9578C23.7777 34.5963 23.5929 34.1484 23.5929 33.6141C23.5929 33.0797 23.7777 32.6354 24.1473 32.2813C24.517 31.9271 24.975 31.75 25.5214 31.75H32.1429V25.3125C32.1429 24.7812 32.3288 24.3359 32.7005 23.9766C33.0724 23.6172 33.5331 23.4375 34.0827 23.4375C34.6323 23.4375 35.0893 23.6172 35.4536 23.9766C35.8179 24.3359 36 24.7812 36 25.3125V33.625C36 34.1562 35.8152 34.6016 35.4455 34.9609C35.0759 35.3203 34.6179 35.5 34.0714 35.5H25.5214ZM34.0602 12.5625C33.5105 12.5625 33.0536 12.3828 32.6893 12.0234C32.325 11.6641 32.1429 11.2188 32.1429 10.6875V4.25H25.5214C24.975 4.25 24.517 4.06927 24.1473 3.70781C23.7777 3.34631 23.5929 2.8984 23.5929 2.36406C23.5929 1.82969 23.7777 1.38542 24.1473 1.03125C24.517 0.677083 24.975 0.5 25.5214 0.5H34.0714C34.6179 0.5 35.0759 0.679687 35.4455 1.03906C35.8152 1.39844 36 1.84375 36 2.375V10.6875C36 11.2188 35.8141 11.6641 35.4423 12.0234C35.0705 12.3828 34.6098 12.5625 34.0602 12.5625Z" fill="#173353"/>
</svg>
