<svg width="31" height="31" viewBox="0 0 31 31" fill="none" xmlns="http://www.w3.org/2000/svg">
<g id="Icone Pesquisa">
<path id="Vector" d="M24.9938 26.3823L17.2115 18.6C16.5656 19.1597 15.8126 19.5957 14.9524 19.9078C14.0921 20.22 13.1768 20.376 12.2063 20.376C9.87776 20.376 7.9071 19.5688 6.29426 17.9542C4.68142 16.3396 3.875 14.3913 3.875 12.1094C3.875 9.82744 4.68229 7.87917 6.29688 6.26459C7.91146 4.65 9.8651 3.84271 12.1578 3.84271C14.4505 3.84271 16.3988 4.65 18.0026 6.26459C19.6064 7.87917 20.4083 9.82905 20.4083 12.1142C20.4083 13.0367 20.2576 13.9285 19.9563 14.7896C19.6549 15.6507 19.2028 16.458 18.6 17.2115L26.4469 24.9938C26.6406 25.1755 26.7375 25.3985 26.7375 25.6629C26.7375 25.9272 26.6308 26.1661 26.4174 26.3795C26.2218 26.5751 25.9816 26.6729 25.697 26.6729C25.4124 26.6729 25.1779 26.576 24.9938 26.3823ZM12.174 18.4385C13.9231 18.4385 15.4099 17.8196 16.6342 16.5818C17.8586 15.3439 18.4708 13.8531 18.4708 12.1094C18.4708 10.3656 17.8586 8.87483 16.6342 7.63698C15.4099 6.39914 13.9231 5.78021 12.174 5.78021C10.4069 5.78021 8.90488 6.39914 7.66791 7.63698C6.43097 8.87483 5.8125 10.3656 5.8125 12.1094C5.8125 13.8531 6.43097 15.3439 7.66791 16.5818C8.90488 17.8196 10.4069 18.4385 12.174 18.4385Z" fill="#8F8F8F"/>
</g>
</svg>
