<svg width="50" height="50" viewBox="0 0 50 50" fill="none" xmlns="http://www.w3.org/2000/svg">
<path d="M38.9941 22.7344C38.9941 22.6172 39.0137 22.5 39.0137 22.3828C39.0137 16.1035 33.8574 10.9375 27.6074 10.9375C23.1055 10.9375 19.2285 13.6621 17.4121 17.4805C16.6211 17.0801 15.7422 16.8555 14.7949 16.8555C11.9043 16.8555 9.51172 19.1699 9.04297 21.9336C5.60547 23.125 3.125 26.25 3.125 30.1172C3.125 34.9805 7.04102 39.0625 11.875 39.0625H38.8672C43.2617 39.0625 46.875 35.2637 46.875 30.8301C46.875 26.377 43.418 22.7441 38.9941 22.7344ZM38.8184 37.4609L38.5059 37.5H11.9531C7.95898 37.5 4.70703 34.0918 4.70703 30.0684C4.70703 26.9531 6.67969 24.3652 9.60938 23.3496L10.4297 23.0566L10.5762 22.1973C10.9277 20.0879 12.7344 18.3594 14.8633 18.3594C15.5371 18.3594 16.2012 18.5156 16.8066 18.8281L18.125 19.4922L18.7598 18.1543C20.3809 14.7461 23.8477 12.4707 27.5879 12.4707C32.9883 12.4707 37.4414 16.7773 37.4414 22.207C37.4414 23.5059 37.4219 24.1895 37.4219 24.1895L38.9062 24.1992C42.4902 24.248 45.3125 27.1777 45.3125 30.7813C45.3125 34.3848 42.4023 37.4414 38.8184 37.4609Z" fill="#141414"/>
</svg>
