<svg width="25" height="33" viewBox="0 0 25 33" fill="none" xmlns="http://www.w3.org/2000/svg">
<g id="pdf" clip-path="url(#clip0_356_554)">
<g id="Group">
<path id="Vector" fill-rule="evenodd" clip-rule="evenodd" d="M25 8.59286V30.075C25 31.499 23.8418 32.6531 22.4138 32.6531H2.58622C1.15765 32.6531 0 31.499 0 30.075V2.57806C0 1.15408 1.15765 0 2.58622 0H16.3791L25 8.59286Z" fill="#CB0606"/>
<path id="Vector_2" fill-rule="evenodd" clip-rule="evenodd" d="M24.9999 8.11174V9.18113H17.9525C16.4933 9.18113 15.8203 7.99745 15.8203 6.53776V0H16.8877L24.9999 8.11174Z" fill="#FB8D8D"/>
<path id="Vector_3" fill-rule="evenodd" clip-rule="evenodd" d="M19.1868 17.3709C18.9644 17.2974 18.7501 17.2602 18.5434 17.2602C18.3087 17.2602 18.1475 17.3087 18.0593 17.4056C17.9715 17.5026 17.9276 17.674 17.9276 17.9204V18.3913H18.9138V19.3372H17.9276V23.2327H16.7327V19.3372H16.1169V18.3913H16.7327V17.9204C16.7327 17.3204 16.8817 16.8867 17.1797 16.6189C17.4776 16.351 17.9256 16.2173 18.5246 16.2173C18.8057 16.2173 19.1036 16.2556 19.4184 16.3327L19.1868 17.3709ZM14.1817 22.7617C13.9593 22.9495 13.7246 23.099 13.4776 23.2097C13.2307 23.3204 12.9501 23.3755 12.6353 23.3755C12.0241 23.3755 11.5562 23.1556 11.2322 22.7158C10.9077 22.2755 10.746 21.6541 10.746 20.851C10.746 20.0296 10.9241 19.3913 11.2807 18.9357C11.6373 18.4806 12.1378 18.2526 12.7832 18.2526C13.0118 18.2526 13.246 18.2995 13.4868 18.3934C13.7276 18.4872 13.9271 18.6066 14.0843 18.751V16.3602H15.2792V23.2327H14.1817V22.7617ZM14.0843 19.7342C13.9577 19.6204 13.8011 19.5194 13.6144 19.4316C13.4276 19.3444 13.2368 19.3005 13.0424 19.3005C12.7215 19.3005 12.4639 19.4383 12.2695 19.7133C12.0746 19.9888 11.9776 20.3617 11.9776 20.8327C11.9776 21.2975 12.0572 21.6617 12.2159 21.9265C12.3751 22.1913 12.621 22.3235 12.9547 22.3235C13.1521 22.3235 13.3536 22.2781 13.5587 22.1872C13.7638 22.0964 13.9394 21.9847 14.0843 21.8526V19.7342ZM8.97712 23.0617C8.68375 23.2709 8.33375 23.3755 7.9261 23.3755C7.38885 23.3755 6.93069 23.2082 6.5511 22.8725V25.0556H5.3562V18.3913H6.45824V18.8663C6.68069 18.6755 6.91436 18.5255 7.15977 18.4163C7.40518 18.3071 7.68681 18.2526 8.00467 18.2526C8.61895 18.2526 9.08681 18.4679 9.40773 18.899C9.72865 19.3296 9.88936 19.9556 9.88936 20.777C9.88936 21.2974 9.81079 21.7556 9.65314 22.1526C9.49548 22.5495 9.27048 22.8526 8.97712 23.0617ZM8.41232 19.6949C8.24855 19.4316 8.00467 19.3005 7.68069 19.3005C7.4863 19.3005 7.2863 19.3459 7.0812 19.4362C6.87559 19.527 6.69906 19.6388 6.5511 19.7709V21.8893C6.67763 22.0036 6.83426 22.1041 7.021 22.1918C7.20773 22.2796 7.39957 22.3235 7.59753 22.3235C7.92457 22.3235 8.18324 22.1842 8.37304 21.9056C8.56283 21.627 8.65773 21.2571 8.65773 20.7959C8.65773 20.325 8.57559 19.9582 8.41232 19.6949Z" fill="white"/>
</g>
</g>
<defs>
<clipPath id="clip0_356_554">
<rect width="25" height="32.6531" fill="white"/>
</clipPath>
</defs>
</svg>
