<svg width="45" height="45" viewBox="0 0 45 45" fill="none" xmlns="http://www.w3.org/2000/svg">
<g id="csv 1">
<path id="Vector" d="M30.9375 41.25H14.0625C12.5707 41.25 11.1399 40.6574 10.085 39.6025C9.03013 38.5476 8.4375 37.1168 8.4375 35.625V9.375C8.4375 7.88316 9.03013 6.45242 10.085 5.39752C11.1399 4.34263 12.5707 3.75 14.0625 3.75H26.4188C26.9106 3.75207 27.382 3.94735 27.7313 4.29375L36.0187 12.5813C36.3651 12.9305 36.5604 13.4019 36.5625 13.8937V35.625C36.5625 37.1168 35.9699 38.5476 34.915 39.6025C33.8601 40.6574 32.4293 41.25 30.9375 41.25Z" fill="#4CAF50"/>
<path id="Vector_2" d="M35.25 14.5125H28.5C27.7541 14.5125 27.0387 14.2162 26.5113 13.6888C25.9838 13.1613 25.6875 12.446 25.6875 11.7V4.95003C25.6867 4.74547 25.7467 4.54529 25.86 4.37495C25.9733 4.20461 26.1346 4.07179 26.3236 3.9934C26.5125 3.91501 26.7205 3.89458 26.9211 3.93471C27.1217 3.97485 27.3058 4.07373 27.45 4.21878L35.9813 12.75C36.1263 12.8943 36.2252 13.0784 36.2653 13.279C36.3055 13.4796 36.285 13.6875 36.2066 13.8765C36.1282 14.0654 35.9954 14.2268 35.8251 14.34C35.6547 14.4533 35.4546 14.5133 35.25 14.5125Z" fill="#B9F6CA"/>
<path id="Vector_3" d="M17.2312 33.9563C16.7005 33.9745 16.1733 33.8652 15.6937 33.6375C15.2628 33.4279 14.9039 33.0951 14.6624 32.6813C14.4067 32.2301 14.2771 31.7185 14.2874 31.2C14.2752 30.6813 14.4049 30.1692 14.6624 29.7188C14.8993 29.3058 15.2601 28.9778 15.6937 28.7813C16.1717 28.5471 16.699 28.4313 17.2312 28.4438C17.4491 28.4173 17.6695 28.4173 17.8874 28.4438C18.1331 28.4801 18.3728 28.5495 18.5999 28.65C18.7489 28.7073 18.8744 28.8129 18.9562 28.95C19.0269 29.0822 19.0594 29.2316 19.0499 29.3813C19.0374 29.5209 18.9925 29.6558 18.9187 29.775C18.8849 29.8352 18.8393 29.8879 18.7845 29.9298C18.7296 29.9717 18.6668 30.002 18.5999 30.0188C18.5325 30.0505 18.4588 30.067 18.3843 30.067C18.3097 30.067 18.2361 30.0505 18.1687 30.0188C17.9402 29.9095 17.6906 29.8519 17.4374 29.85C17.275 29.8403 17.1123 29.8654 16.9604 29.9236C16.8084 29.9818 16.6706 30.0718 16.5562 30.1875C16.3408 30.4652 16.2342 30.8118 16.2562 31.1625C16.2306 31.5136 16.3376 31.8615 16.5562 32.1375C16.6665 32.2597 16.8031 32.3553 16.9558 32.417C17.1085 32.4787 17.2731 32.505 17.4374 32.4938H17.7937L18.1687 32.3625C18.2361 32.3308 18.3097 32.3143 18.3843 32.3143C18.4588 32.3143 18.5325 32.3308 18.5999 32.3625C18.6639 32.3805 18.7235 32.4115 18.7751 32.4534C18.8267 32.4953 18.8692 32.5473 18.8999 32.6063C18.9818 32.7216 19.0274 32.8586 19.0312 33C19.0477 33.1501 19.0148 33.3015 18.9374 33.4313C18.8556 33.5683 18.7302 33.674 18.5812 33.7313C18.3566 33.8207 18.1244 33.8897 17.8874 33.9375L17.2312 33.9563Z" fill="#E8F5E9"/>
<path id="Vector_4" d="M22.1062 33.9562C21.788 33.9841 21.4681 33.9841 21.1499 33.9562C20.8456 33.9199 20.5484 33.8377 20.2687 33.7125C20.1714 33.6855 20.0809 33.638 20.0034 33.5734C19.9258 33.5087 19.8628 33.4283 19.8187 33.3375C19.7629 33.1798 19.7629 33.0077 19.8187 32.85C19.8677 32.6916 19.9749 32.5576 20.1187 32.475C20.1996 32.4323 20.2897 32.41 20.3812 32.41C20.4727 32.41 20.5628 32.4323 20.6437 32.475C20.8968 32.5796 21.161 32.655 21.4312 32.7C21.6679 32.7268 21.9069 32.7268 22.1437 32.7C22.338 32.7154 22.5328 32.6765 22.7062 32.5875C22.7586 32.5572 22.802 32.5134 22.8317 32.4606C22.8614 32.4078 22.8763 32.348 22.8749 32.2875C22.878 32.2407 22.8693 32.1939 22.8496 32.1513C22.83 32.1088 22.8 32.0718 22.7624 32.0437C22.6885 31.9688 22.5988 31.9112 22.4999 31.875L21.3187 31.6687C20.9316 31.6345 20.5678 31.4691 20.2874 31.2C20.1627 31.0671 20.0654 30.9109 20.0011 30.7404C19.9367 30.5699 19.9066 30.3884 19.9124 30.2062C19.9124 29.8614 20.0243 29.5259 20.2312 29.25C20.4579 28.9701 20.7558 28.7563 21.0937 28.6312C21.5005 28.476 21.9332 28.3997 22.3687 28.4062C22.662 28.3844 22.9566 28.3844 23.2499 28.4062C23.5142 28.4596 23.7719 28.5413 24.0187 28.65C24.1051 28.6808 24.1835 28.7304 24.2484 28.7953C24.3132 28.8601 24.3629 28.9386 24.3937 29.025C24.4494 29.1827 24.4494 29.3548 24.3937 29.5125C24.336 29.6671 24.2222 29.7943 24.0749 29.8687C23.994 29.9114 23.9039 29.9338 23.8124 29.9338C23.7209 29.9338 23.6308 29.9114 23.5499 29.8687C23.3434 29.7827 23.1302 29.7138 22.9124 29.6625C22.7441 29.6457 22.5745 29.6457 22.4062 29.6625C22.1918 29.6482 21.9776 29.6937 21.7874 29.7937C21.7315 29.8215 21.6843 29.8642 21.6512 29.9172C21.6181 29.9702 21.6004 30.0313 21.5999 30.0937C21.5999 30.2812 21.7312 30.3937 21.9937 30.45L23.1937 30.6562C23.582 30.6934 23.949 30.8507 24.2437 31.1062C24.3696 31.2344 24.4679 31.3871 24.5324 31.5548C24.5969 31.7225 24.6262 31.9017 24.6187 32.0812C24.6299 32.3451 24.5739 32.6074 24.4558 32.8436C24.3377 33.0797 24.1615 33.282 23.9437 33.4312C23.4072 33.807 22.7602 33.9919 22.1062 33.9562Z" fill="#E8F5E9"/>
<path id="Vector_5" d="M27.8249 33.9375C27.5903 33.9421 27.3603 33.8718 27.1681 33.737C26.976 33.6022 26.8317 33.4097 26.7562 33.1875L25.2187 29.6813C25.1542 29.55 25.1206 29.4057 25.1206 29.2594C25.1206 29.1131 25.1542 28.9688 25.2187 28.8375C25.3079 28.7046 25.4323 28.5992 25.578 28.5329C25.7237 28.4667 25.8849 28.4423 26.0437 28.4625C26.2392 28.4525 26.432 28.5123 26.5874 28.6313C26.7777 28.7856 26.9153 28.9953 26.9812 29.2313L27.8812 31.5563L28.8374 29.2125C28.9098 28.9895 29.0391 28.7892 29.2124 28.6313C29.3892 28.5121 29.5995 28.453 29.8124 28.4625C29.9962 28.4548 30.1763 28.5149 30.3187 28.6313C30.4559 28.7435 30.5434 28.9051 30.5624 29.0813C30.5946 29.2862 30.5618 29.496 30.4687 29.6813L28.8937 33.2063C28.8175 33.4266 28.6725 33.6166 28.48 33.7483C28.2876 33.88 28.0579 33.9463 27.8249 33.9375Z" fill="#E8F5E9"/>
</g>
</svg>
