<svg width="35" height="35" viewBox="0 0 35 35" fill="none" xmlns="http://www.w3.org/2000/svg">
<g id="nuvem-2">
<path id="Vector" d="M9.15109 29.1667C7.0122 29.1667 5.19536 28.4193 3.70056 26.9245C2.20577 25.4297 1.45837 23.6128 1.45837 21.4739C1.45837 19.651 2.0964 18.1016 3.37244 16.8255C4.64848 15.5495 6.19796 14.9115 8.02088 14.9115C9.67366 14.9115 11.1077 15.3915 12.323 16.3516C13.5382 17.3116 14.2674 18.5694 14.5105 20.125C14.5591 20.4167 14.6867 20.6597 14.8933 20.8542C15.0999 21.0486 15.3369 21.1458 15.6042 21.1458C15.9445 21.1458 16.224 21.0304 16.4428 20.7995C16.6615 20.5686 16.7466 20.3073 16.698 20.0156C16.4306 18.1927 15.5617 16.5642 14.0912 15.1302C12.6207 13.6962 10.658 12.8941 8.20317 12.724C8.81081 10.7309 9.98963 9.0842 11.7396 7.78385C13.4896 6.4835 15.4219 5.83333 17.5365 5.83333C20.2587 5.83333 22.5617 6.83593 24.4454 8.84114C26.329 10.8463 27.2709 13.2222 27.2709 15.9687V16.8437C29.0695 16.8437 30.5643 17.4271 31.7553 18.5937C32.9462 19.7604 33.5417 21.2309 33.5417 23.0052C33.5417 24.6823 32.9341 26.1285 31.7188 27.3437C30.5035 28.559 29.0573 29.1667 27.3803 29.1667H9.15109Z" fill="#104179"/>
</g>
</svg>
