<svg width="35" height="35" viewBox="0 0 35 35" fill="none" xmlns="http://www.w3.org/2000/svg">
<g id="nuvem-2">
<path id="Vector" d="M9.15096 29.1667C7.01207 29.1667 5.19523 28.4193 3.70044 26.9245C2.20565 25.4297 1.45825 23.6128 1.45825 21.4739C1.45825 19.651 2.09627 18.1016 3.37232 16.8255C4.64836 15.5495 6.19784 14.9115 8.02076 14.9115C9.67353 14.9115 11.1076 15.3915 12.3228 16.3516C13.5381 17.3116 14.2673 18.5694 14.5103 20.125C14.559 20.4167 14.6866 20.6597 14.8932 20.8542C15.0998 21.0486 15.3367 21.1458 15.6041 21.1458C15.9444 21.1458 16.2239 21.0304 16.4426 20.7995C16.6614 20.5686 16.7465 20.3073 16.6978 20.0156C16.4305 18.1927 15.5616 16.5642 14.0911 15.1302C12.6206 13.6962 10.6579 12.8941 8.20305 12.724C8.81069 10.7309 9.98951 9.0842 11.7395 7.78385C13.4895 6.4835 15.4218 5.83333 17.5364 5.83333C20.2586 5.83333 22.5616 6.83593 24.4452 8.84114C26.3289 10.8463 27.2708 13.2222 27.2708 15.9687V16.8437C29.0694 16.8437 30.5642 17.4271 31.7551 18.5937C32.9461 19.7604 33.5416 21.2309 33.5416 23.0052C33.5416 24.6823 32.934 26.1285 31.7187 27.3437C30.5034 28.559 29.0572 29.1667 27.3801 29.1667H9.15096Z" fill="#142334"/>
</g>
</svg>
