<svg width="40" height="40" viewBox="0 0 40 40" fill="none" xmlns="http://www.w3.org/2000/svg">
<g clip-path="url(#clip0_354_42)">
<path d="M20 38.8333C30.4014 38.8333 38.8334 30.4014 38.8334 20C38.8334 9.59864 30.4014 1.16667 20 1.16667C9.59866 1.16667 1.16669 9.59864 1.16669 20C1.16669 30.4014 9.59866 38.8333 20 38.8333Z" stroke="#666666" stroke-width="1.5" stroke-miterlimit="10" stroke-linecap="round" stroke-linejoin="round"/>
<path d="M20 24.8333C14.1667 24.8333 9.16669 28.1667 6.66669 33.1667C10 36.6667 14.8334 38.6667 20 38.6667C25.1667 38.6667 30 36.5 33.3334 33.1667C30.8334 28.3333 25.8334 24.8333 20 24.8333Z" stroke="#666666" stroke-width="1.5" stroke-miterlimit="10" stroke-linecap="round" stroke-linejoin="round"/>
<path d="M20 20.5C23.3137 20.5 26 17.8137 26 14.5C26 11.1863 23.3137 8.5 20 8.5C16.6863 8.5 14 11.1863 14 14.5C14 17.8137 16.6863 20.5 20 20.5Z" stroke="#666666" stroke-width="1.5" stroke-miterlimit="10" stroke-linecap="round" stroke-linejoin="round"/>
</g>
<defs>
<clipPath id="clip0_354_42">
<rect width="40" height="40" fill="white"/>
</clipPath>
</defs>
</svg>
