<svg width="35" height="35" viewBox="0 0 35 35" fill="none" xmlns="http://www.w3.org/2000/svg">
<g id="Filtro">
<path id="Vector" d="M16.0416 29.1667C15.6284 29.1667 15.2821 29.0269 15.0026 28.7474C14.7231 28.4679 14.5833 28.1215 14.5833 27.7083V18.9583L5.86976 7.83854C5.52949 7.42534 5.48088 6.98784 5.72393 6.52604C5.96699 6.06423 6.34372 5.83333 6.85414 5.83333H28.1458C28.6562 5.83333 29.033 6.06423 29.276 6.52604C29.5191 6.98784 29.4705 7.42534 29.1302 7.83854L20.4166 18.9583V27.7083C20.4166 28.1215 20.2769 28.4679 19.9974 28.7474C19.7179 29.0269 19.3715 29.1667 18.9583 29.1667H16.0416Z" fill="#104179"/>
</g>
</svg>
