<svg width="35" height="35" viewBox="0 0 35 35" fill="none" xmlns="http://www.w3.org/2000/svg">
<g id="Filtro">
<path id="Vector" d="M16.0419 29.1667C15.6287 29.1667 15.2823 29.0269 15.0028 28.7474C14.7233 28.4679 14.5836 28.1215 14.5836 27.7083V18.9583L5.87001 7.83854C5.52973 7.42534 5.48112 6.98784 5.72418 6.52604C5.96723 6.06423 6.34397 5.83333 6.85438 5.83333H28.1461C28.6565 5.83333 29.0332 6.06423 29.2763 6.52604C29.5193 6.98784 29.4707 7.42534 29.1304 7.83854L20.4169 18.9583V27.7083C20.4169 28.1215 20.2771 28.4679 19.9976 28.7474C19.7181 29.0269 19.3717 29.1667 18.9586 29.1667H16.0419Z" fill="#142334"/>
</g>
</svg>
