<svg width="40" height="41" viewBox="0 0 40 41" fill="none" xmlns="http://www.w3.org/2000/svg">
<g id="Ok ">
<path id="Vector" d="M15.7499 29.75C15.5833 29.75 15.4305 29.7222 15.2916 29.6666C15.1527 29.6111 15.0138 29.5138 14.8749 29.375L7.33325 21.8333C7.08325 21.5833 6.95825 21.2777 6.95825 20.9166C6.95825 20.5555 7.08325 20.25 7.33325 20C7.58325 19.75 7.87492 19.625 8.20825 19.625C8.54159 19.625 8.83325 19.75 9.08325 20L15.7499 26.6666L30.8749 11.5416C31.1249 11.2916 31.4235 11.1666 31.7708 11.1666C32.118 11.1666 32.4166 11.2916 32.6666 11.5416C32.9166 11.7916 33.0416 12.0902 33.0416 12.4375C33.0416 12.7847 32.9166 13.0833 32.6666 13.3333L16.6249 29.375C16.486 29.5138 16.3471 29.6111 16.2083 29.6666C16.0694 29.7222 15.9166 29.75 15.7499 29.75Z" fill="#666666"/>
</g>
</svg>
