<svg width="89" height="34" viewBox="0 0 89 34" fill="none" xmlns="http://www.w3.org/2000/svg">
<path d="M12.68 16.5L1.5 5.34L2.12 5.54L2.16 16H0.0600002V1.04H0.14L11.18 12.2L10.7 12.08L10.66 1.5H12.74V16.5H12.68ZM19.3069 16.34C18.5335 16.34 17.9002 16.1067 17.4069 15.64C16.9135 15.1733 16.6535 14.5733 16.6269 13.84V7.64H18.6469V13.12C18.6735 13.56 18.8002 13.9133 19.0269 14.18C19.2535 14.4467 19.6135 14.5933 20.1069 14.62C20.5602 14.62 20.9669 14.4867 21.3269 14.22C21.6869 13.94 21.9669 13.56 22.1669 13.08C22.3802 12.6 22.4869 12.06 22.4869 11.46V7.64H24.5069V16H22.6869L22.5269 14.04L22.6069 14.36C22.3535 14.9333 21.9269 15.4067 21.3269 15.78C20.7402 16.1533 20.0669 16.34 19.3069 16.34ZM31.4116 16.24L26.7116 7.64H29.0916L32.1916 14.14L30.9516 14.08L33.7716 7.64H36.0116L31.5116 16.24H31.4116ZM41.8867 16.2C40.9267 16.2 40.1001 16.0133 39.4067 15.64C38.7134 15.2533 38.1801 14.7267 37.8067 14.06C37.4334 13.38 37.2467 12.6133 37.2467 11.76C37.2467 10.9333 37.4534 10.1867 37.8667 9.52C38.2934 8.84 38.8601 8.3 39.5667 7.9C40.2734 7.5 41.0601 7.3 41.9267 7.3C43.0467 7.3 43.9734 7.62667 44.7067 8.28C45.4534 8.92 45.9534 9.82667 46.2067 11L39.3867 13.36L38.9067 12.2L44.3867 10.2L43.9667 10.48C43.8067 10.0533 43.5534 9.68667 43.2067 9.38C42.8601 9.06 42.3867 8.9 41.7867 8.9C41.0401 8.9 40.4267 9.16 39.9467 9.68C39.4801 10.1867 39.2467 10.84 39.2467 11.64C39.2467 12.4933 39.5001 13.18 40.0067 13.7C40.5134 14.22 41.1534 14.48 41.9267 14.48C42.2867 14.48 42.6334 14.42 42.9667 14.3C43.3001 14.1667 43.6134 13.9933 43.9067 13.78L44.8267 15.28C44.4001 15.56 43.9267 15.7867 43.4067 15.96C42.9001 16.12 42.3934 16.2 41.8867 16.2ZM50.5445 7.64L50.7245 9.46L50.6245 9.3C50.9312 8.67333 51.3645 8.18667 51.9245 7.84C52.4979 7.48 53.1512 7.3 53.8845 7.3C54.5779 7.3 55.1579 7.46 55.6245 7.78C56.0912 8.1 56.3779 8.55333 56.4845 9.14L56.3845 9.22C56.7179 8.62 57.1645 8.15333 57.7245 7.82C58.2845 7.47333 58.8712 7.3 59.4845 7.3C60.3112 7.3 60.9645 7.53333 61.4445 8C61.9245 8.45333 62.1712 9.05333 62.1845 9.8V16H60.1845V10.56C60.1712 10.1333 60.0712 9.78 59.8845 9.5C59.7112 9.22 59.3912 9.06667 58.9245 9.04C58.4445 9.04 58.0179 9.18667 57.6445 9.48C57.2845 9.77333 56.9979 10.1533 56.7845 10.62C56.5845 11.0867 56.4779 11.5867 56.4645 12.12V16H54.4445V10.56C54.4312 10.1333 54.3245 9.78 54.1245 9.5C53.9379 9.22 53.6112 9.06667 53.1445 9.04C52.6779 9.04 52.2579 9.18667 51.8845 9.48C51.5245 9.77333 51.2445 10.16 51.0445 10.64C50.8445 11.1067 50.7445 11.6067 50.7445 12.14V16H48.7245V7.64H50.5445ZM71.8633 16.2C71.0766 16.2 70.3699 16.02 69.7433 15.66C69.1166 15.2867 68.6233 14.76 68.2633 14.08C67.9033 13.4 67.7233 12.6067 67.7233 11.7C67.7233 10.7667 67.9166 9.97333 68.3033 9.32C68.6899 8.66667 69.2099 8.16667 69.8633 7.82C70.5299 7.47333 71.2766 7.3 72.1033 7.3C72.7433 7.3 73.3499 7.43333 73.9233 7.7C74.5099 7.95333 74.9699 8.31333 75.3033 8.78L75.2233 9.48V0.46H77.2433V16H75.2033V14L75.4233 14.54C75.0233 15.02 74.5166 15.42 73.9033 15.74C73.3033 16.0467 72.6233 16.2 71.8633 16.2ZM72.4833 14.5C73.1899 14.5 73.7766 14.32 74.2433 13.96C74.7233 13.5867 75.0433 13.0933 75.2033 12.48V10.82C75.0566 10.26 74.7299 9.8 74.2233 9.44C73.7299 9.08 73.1499 8.9 72.4833 8.9C72.0033 8.9 71.5566 9.02 71.1433 9.26C70.7299 9.48667 70.3966 9.81333 70.1433 10.24C69.9033 10.6533 69.7833 11.1333 69.7833 11.68C69.7833 12.2 69.9033 12.6733 70.1433 13.1C70.3966 13.5267 70.7299 13.8667 71.1433 14.12C71.5566 14.3733 72.0033 14.5 72.4833 14.5ZM84.5664 16.2C83.6064 16.2 82.7797 16.0133 82.0864 15.64C81.3931 15.2533 80.8597 14.7267 80.4864 14.06C80.1131 13.38 79.9264 12.6133 79.9264 11.76C79.9264 10.9333 80.1331 10.1867 80.5464 9.52C80.9731 8.84 81.5397 8.3 82.2464 7.9C82.9531 7.5 83.7397 7.3 84.6064 7.3C85.7264 7.3 86.6531 7.62667 87.3864 8.28C88.1331 8.92 88.6331 9.82667 88.8864 11L82.0664 13.36L81.5864 12.2L87.0664 10.2L86.6464 10.48C86.4864 10.0533 86.2331 9.68667 85.8864 9.38C85.5397 9.06 85.0664 8.9 84.4664 8.9C83.7197 8.9 83.1064 9.16 82.6264 9.68C82.1597 10.1867 81.9264 10.84 81.9264 11.64C81.9264 12.4933 82.1797 13.18 82.6864 13.7C83.1931 14.22 83.8331 14.48 84.6064 14.48C84.9664 14.48 85.3131 14.42 85.6464 14.3C85.9797 14.1667 86.2931 13.9933 86.5864 13.78L87.5064 15.28C87.0797 15.56 86.6064 15.7867 86.0864 15.96C85.5797 16.12 85.0731 16.2 84.5664 16.2ZM4.02 18.5C5.62 18.5 6.87333 18.9 7.78 19.7C8.68667 20.5 9.14 21.62 9.14 23.06C9.14 23.6333 9.05333 24.2 8.88 24.76C8.70667 25.32 8.42667 25.8333 8.04 26.3C7.66667 26.7533 7.16667 27.12 6.54 27.4C5.92667 27.6667 5.17333 27.8 4.28 27.8H2.14V33H0.0600002V18.5H4.02ZM4.26 25.76C4.80667 25.76 5.26 25.6733 5.62 25.5C5.99333 25.3133 6.28 25.08 6.48 24.8C6.69333 24.52 6.84 24.2267 6.92 23.92C7.01333 23.6133 7.06 23.34 7.06 23.1C7.06 22.8333 7.01333 22.5533 6.92 22.26C6.84 21.9533 6.69333 21.6733 6.48 21.42C6.28 21.1533 6.00667 20.94 5.66 20.78C5.31333 20.6067 4.88 20.52 4.36 20.52H2.14V25.76H4.26ZM15.3613 33.2C14.5746 33.2 13.8613 33.0333 13.2212 32.7C12.5813 32.3667 12.0746 31.88 11.7013 31.24C11.3279 30.5867 11.1413 29.78 11.1413 28.82C11.1413 27.8867 11.3346 27.0867 11.7213 26.42C12.1213 25.74 12.6413 25.22 13.2813 24.86C13.9346 24.4867 14.6413 24.3 15.4013 24.3C16.2013 24.3 16.8613 24.4667 17.3813 24.8C17.9013 25.1333 18.3013 25.5333 18.5813 26L18.4613 26.32L18.6613 24.64H20.5213V33H18.5013V30.88L18.7013 31.38C18.6479 31.4867 18.5346 31.64 18.3613 31.84C18.1879 32.04 17.9613 32.2467 17.6813 32.46C17.4013 32.66 17.0613 32.8333 16.6613 32.98C16.2746 33.1267 15.8413 33.2 15.3613 33.2ZM15.9013 31.54C16.5679 31.54 17.1279 31.3667 17.5813 31.02C18.0479 30.66 18.3546 30.1733 18.5013 29.56V27.84C18.3413 27.2933 18.0146 26.84 17.5213 26.48C17.0413 26.12 16.4813 25.94 15.8413 25.94C15.3613 25.94 14.9213 26.06 14.5213 26.3C14.1213 26.5267 13.8013 26.8533 13.5613 27.28C13.3213 27.6933 13.2013 28.1733 13.2013 28.72C13.2013 29.2533 13.3213 29.7333 13.5613 30.16C13.8146 30.5867 14.1479 30.9267 14.5613 31.18C14.9746 31.42 15.4213 31.54 15.9013 31.54ZM23.9277 17.46H25.9477V33H23.9277V17.46ZM32.8534 33.2C32.0668 33.2 31.3534 33.0333 30.7134 32.7C30.0734 32.3667 29.5668 31.88 29.1934 31.24C28.8201 30.5867 28.6334 29.78 28.6334 28.82C28.6334 27.8867 28.8268 27.0867 29.2134 26.42C29.6134 25.74 30.1334 25.22 30.7734 24.86C31.4268 24.4867 32.1334 24.3 32.8934 24.3C33.6934 24.3 34.3534 24.4667 34.8734 24.8C35.3934 25.1333 35.7934 25.5333 36.0734 26L35.9534 26.32L36.1534 24.64H38.0134V33H35.9934V30.88L36.1934 31.38C36.1401 31.4867 36.0268 31.64 35.8534 31.84C35.6801 32.04 35.4534 32.2467 35.1734 32.46C34.8934 32.66 34.5534 32.8333 34.1534 32.98C33.7668 33.1267 33.3334 33.2 32.8534 33.2ZM33.3934 31.54C34.0601 31.54 34.6201 31.3667 35.0734 31.02C35.5401 30.66 35.8468 30.1733 35.9934 29.56V27.84C35.8334 27.2933 35.5068 26.84 35.0134 26.48C34.5334 26.12 33.9734 25.94 33.3334 25.94C32.8534 25.94 32.4134 26.06 32.0134 26.3C31.6134 26.5267 31.2934 26.8533 31.0534 27.28C30.8134 27.6933 30.6934 28.1733 30.6934 28.72C30.6934 29.2533 30.8134 29.7333 31.0534 30.16C31.3068 30.5867 31.6401 30.9267 32.0534 31.18C32.4668 31.42 32.9134 31.54 33.3934 31.54ZM44.8998 33.24L40.1998 24.64H42.5798L45.6798 31.14L44.4398 31.08L47.2598 24.64H49.4998L44.9998 33.24H44.8998ZM53.4698 24.64L53.6698 27.04L53.5898 26.72C53.8165 26.2133 54.1298 25.78 54.5298 25.42C54.9432 25.06 55.3698 24.7867 55.8098 24.6C56.2632 24.4 56.6432 24.3 56.9498 24.3L56.8498 26.3C56.2232 26.26 55.6698 26.38 55.1898 26.66C54.7232 26.94 54.3565 27.3133 54.0898 27.78C53.8232 28.2467 53.6898 28.7467 53.6898 29.28V33H51.6698V24.64H53.4698ZM62.8222 33.2C62.0355 33.2 61.3222 33.0333 60.6822 32.7C60.0422 32.3667 59.5355 31.88 59.1622 31.24C58.7889 30.5867 58.6022 29.78 58.6022 28.82C58.6022 27.8867 58.7955 27.0867 59.1822 26.42C59.5822 25.74 60.1022 25.22 60.7422 24.86C61.3955 24.4867 62.1022 24.3 62.8622 24.3C63.6622 24.3 64.3222 24.4667 64.8422 24.8C65.3622 25.1333 65.7622 25.5333 66.0422 26L65.9222 26.32L66.1222 24.64H67.9822V33H65.9622V30.88L66.1622 31.38C66.1089 31.4867 65.9955 31.64 65.8222 31.84C65.6489 32.04 65.4222 32.2467 65.1422 32.46C64.8622 32.66 64.5222 32.8333 64.1222 32.98C63.7355 33.1267 63.3022 33.2 62.8222 33.2ZM63.3622 31.54C64.0289 31.54 64.5889 31.3667 65.0422 31.02C65.5089 30.66 65.8155 30.1733 65.9622 29.56V27.84C65.8022 27.2933 65.4755 26.84 64.9822 26.48C64.5022 26.12 63.9422 25.94 63.3022 25.94C62.8222 25.94 62.3822 26.06 61.9822 26.3C61.5822 26.5267 61.2622 26.8533 61.0222 27.28C60.7822 27.6933 60.6622 28.1733 60.6622 28.72C60.6622 29.2533 60.7822 29.7333 61.0222 30.16C61.2755 30.5867 61.6089 30.9267 62.0222 31.18C62.4355 31.42 62.8822 31.54 63.3622 31.54ZM73.8086 33.18C73.1953 33.18 72.6086 33.0733 72.0486 32.86C71.4886 32.6333 71.0153 32.3133 70.6286 31.9L71.4886 30.74C71.8353 31.0733 72.1953 31.3267 72.5686 31.5C72.9553 31.6733 73.3153 31.76 73.6486 31.76C74.0353 31.76 74.3753 31.6867 74.6686 31.54C74.9619 31.38 75.1086 31.12 75.1086 30.76C75.1086 30.4667 75.0086 30.24 74.8086 30.08C74.6219 29.92 74.3819 29.7867 74.0886 29.68C73.7953 29.5733 73.4819 29.4733 73.1486 29.38C72.4553 29.1533 71.9219 28.8333 71.5486 28.42C71.1886 27.9933 71.0086 27.4933 71.0086 26.92C71.0086 26.48 71.1153 26.0667 71.3286 25.68C71.5553 25.28 71.8953 24.96 72.3486 24.72C72.8019 24.4667 73.3619 24.34 74.0286 24.34C74.6153 24.34 75.1419 24.4133 75.6086 24.56C76.0753 24.6933 76.5086 24.9267 76.9086 25.26L76.1286 26.48C75.8886 26.24 75.6019 26.06 75.2686 25.94C74.9486 25.8067 74.6553 25.7333 74.3886 25.72C74.0286 25.72 73.7153 25.8067 73.4486 25.98C73.1819 26.14 73.0486 26.36 73.0486 26.64C73.0486 26.92 73.1419 27.1467 73.3286 27.32C73.5153 27.48 73.7553 27.6133 74.0486 27.72C74.3553 27.8133 74.6619 27.9133 74.9686 28.02C75.5819 28.22 76.0886 28.4933 76.4886 28.84C76.9019 29.1867 77.1086 29.6933 77.1086 30.36C77.1086 30.8667 76.9886 31.3333 76.7486 31.76C76.5086 32.1867 76.1419 32.5333 75.6486 32.8C75.1686 33.0533 74.5553 33.18 73.8086 33.18Z" fill="#141414"/>
</svg>
